<svg xmlns="http://www.w3.org/2000/svg" viewBox="0 0 4153 2264"><path fil="#fff" d="M37 46h1s8 24 14 39l85 217h30l85-217c6-15 14-39 14-39h1v256h37V-10h-51L153 249h-1L51-10H1v312h35V46zM493 181v38c0 26-21 61-68 61-23 0-47-7-47-37 0-33 28-39 64-46 19-3 40-9 51-17zm-54-10c-56 9-98 20-98 73 0 43 34 63 76 63 38 0 62-18 75-36 3 23 16 34 39 34 9 0 15-2 19-3v-26h-1c-20 4-24-6-24-24V145c0-54-35-72-83-72-60 0-89 33-90 76h34c1-34 20-50 56-50 32 0 51 14 51 40 0 24-22 27-54 32zM660 102c47 0 72 37 72 89 0 51-21 89-72 89-43 0-65-37-65-89 0-51 22-89 65-89zm-1 207c32 0 53-12 70-34h1v27h35V-10h-35v118h-1c-14-21-39-37-71-37-56 0-99 44-99 119 0 72 38 119 100 119zM903 100c41 0 64 27 66 72H833c5-41 28-72 70-72zm2 209c51 0 86-27 97-76h-34c-8 31-30 46-62 46-45 0-70-35-73-81h174c0-75-36-127-104-127-64 0-107 53-107 119 0 65 40 119 109 119zM1187 303l38-136c5-19 11-47 11-47h1s6 28 11 47l37 136h36l74-225h-37l-42 139c-6 19-13 48-13 48h-1s-6-29-11-48l-37-140h-37l-38 140c-5 18-11 48-11 48h-1s-7-30-12-48l-40-139h-38l71 225h37zM1416 303h36V77h-36zM1416 35h36V-9h-36zM1549 6h-35v71h-33v29h33v154c0 32 21 44 50 44 10 0 20-1 28-3v-31h-1c-4 1-12 3-19 3-14 0-23-5-23-21V106h44V77h-44V6zM1732 72c-33 0-55 14-72 35h-1V-9h-35v312h35V164c0-37 26-62 62-62 32 0 51 17 51 46v155h35V145c0-47-29-72-76-72zM1254 1966l-271-456 271-456 131 456-131 456zm-603-44l-340-338h541l270 456-471-118zm0-824l471-118-270 456H311l340-338zm692-342L727 916l-91 156-185-1L0 1509l451 438 185-1 91 156 616 160 165-599-94-155 94-155-165-599zM2740 1200c-82 0-138 34-179 99h-4v-82h-144v603h148v-342c0-82 52-139 122-139 67 0 117 40 117 111v370h148v-394c0-132-83-226-208-226zM2189 1564c0 80-46 136-121 136-68 0-111-39-111-109v-375h-148v402c0 132 75 218 209 218 85 0 132-32 173-87h4v71h142v-603h-148v348zM3025 1820h148v-603h-148zM3025 1150h148v-121h-148zM4007 1217l-88 272c-19 55-35 132-35 132h-4s-20-76-39-132l-99-272h-158l162 429c34 92 46 130 46 163 0 49-26 82-89 82h-56v126h94c122 0 165-48 211-182l213-618h-157zM3448 1642v-320h94v-106h-94v-188h-147v188h-83v106h83v354c0 114 86 145 163 145 63 0 81-2 81-2v-117h-38c-35 0-60-15-60-60z"/></svg>
